<svg class="wave_slider" fill="#fff" xmlns="http://www.w3.org/2000/svg" viewBox="0 0 1920 347.1" preserveAspectRatio="none"> 
<path class="st0" style="opacity:0.1;fill:#FFFFFF;" d="M1462.9,33.9C1122.7,230.1,740.1,279.2,328.2,226C217.5,212.7,107.7,202.7,0,199.8v145h653.5
	c276.7-79.6,553.4-159.3,830.1-238.9C1476.7,81.9,1469.8,57.9,1462.9,33.9z"/>
<linearGradient id="SVGID_1_" gradientUnits="userSpaceOnUse" x1="959.993" y1="-34.036" x2="959.993" y2="1600.0077">
	<stop  offset="0" style="stop-color:#FFFFFF"/>
	<stop  offset="8.581323e-02" style="stop-color:#F7F9FE"/>
	<stop  offset="0.2183" style="stop-color:#E1E7FC"/>
	<stop  offset="0.3808" style="stop-color:#BECAF9"/>
	<stop  offset="0.5671" style="stop-color:#8DA2F5"/>
	<stop  offset="0.7737" style="stop-color:#4E6EF0"/>
	<stop  offset="0.9942" style="stop-color:#0231E9"/>
	<stop  offset="1" style="stop-color:#002FE9"/>
</linearGradient>
<path class="st1" style="fill:url(#SVGID_1_);" d="M1030.7,167.5C687.2,305.5,343.6,355.4,0,279.1v59.7c0.3,0.4,0.6,0.7,1,1.1h1919V15.8
	C1623.6-37.4,1327.2,51.4,1030.7,167.5z"/>
<path class="st2" style="fill:#FFFFFF;" d="M1920,347.1V141.6c0-0.2,0-0.4,0-0.6c-315-100.1-632.9-23.3-951.4,83.7C644.3,336.4,321.2,372.7,0,300.6v46.5
	H1920z"/>
</svg>
